# xmcd
#
# Track frame offsets: 
#        150
#        14757
#        30834
#        44550
#        56316
#        70653
#        87186
#        99891
#        116518
#        128202
#        143949
#        158206
#        173648
#
# Disc length: 2509 seconds
#
# Revision: 0
# Processed by: cddbd v1.5.2PL0 Copyright (c) Steve Scherf et al.
# Submitted via: ExactAudioCopy v1.3
#
DISCID=a109cb0d
DTITLE=Mickey Gilley - Talk To Me
DYEAR=1994
DGENRE=Country
TTITLE0=You Don't Know Me
TTITLE1=Talk To Me
TTITLE2=I Overlooked An Orchid
TTITLE3=Window Up Above
TTITLE4=Crazy Arms
TTITLE5=A Headache Tomorrow (Or A Heartache Tonight)
TTITLE6=City Lights
TTITLE7=Lonely Nights
TTITLE8=Honky Tonk Wine
TTITLE9=Texas Heartache Number One
TTITLE10=Just Long Enough To Say Go
TTITLE11=She Reminded Me Of You
TTITLE12=Paradise Tonight
EXTD=
EXTT0=
EXTT1=
EXTT2=
EXTT3=
EXTT4=
EXTT5=
EXTT6=
EXTT7=
EXTT8=
EXTT9=
EXTT10=
EXTT11=
EXTT12=
PLAYORDER=
